<svg width="35" height="38" viewBox="0 0 35 38" fill="none" xmlns="http://www.w3.org/2000/svg">
<path d="M4.32581 12.3756C4.32581 19.1822 10.1828 24.7512 17.3414 24.7512C24.5 24.7512 30.3571 19.1822 30.3571 12.3756C30.3571 5.56902 24.5 0 17.3414 0C10.1828 0 4.32581 5.56902 4.32581 12.3756ZM27.2946 12.3756C27.2946 17.5806 22.8156 21.8393 17.3414 21.8393C11.8672 21.8393 7.38831 17.5806 7.38831 12.3756C7.38831 7.17057 11.8672 2.91191 17.3414 2.91191C22.8156 2.91191 27.2946 7.17057 27.2946 12.3756Z" fill="#F9B233"/>
<path d="M2.18203 38.0005C6.23984 34.1422 11.5992 32.031 17.3414 32.031C23.0836 32.031 28.443 34.1422 32.5008 38.0005L34.6828 35.9257C30.0508 31.5579 23.8875 29.1191 17.3414 29.1191C10.7953 29.1191 4.63203 31.5579 0 35.9257L2.18203 38.0005Z" fill="#F9B233"/>
</svg>
