<svg width="116" height="70" viewBox="0 0 116 70" fill="none" xmlns="http://www.w3.org/2000/svg">
<path d="M0 58.3347L11.6 58.342C14.8172 58.342 17.4 55.7425 17.4 52.5155V11.8387H0V58.3347ZM8.7 46.7289C10.2859 46.7289 11.6 48.0237 11.6 49.6376C11.6 51.2278 10.2859 52.5463 8.7 52.5463C7.11406 52.5463 5.8 51.222 5.8 49.6394C5.8 48.0204 7.11406 46.7289 8.7 46.7289ZM63.22 0.141889C61.7807 0.141889 60.3816 0.681978 59.3195 1.65683L41.4881 18.0236C41.47 18.06 41.47 18.0963 41.4338 18.0963C38.425 20.9341 38.4794 25.4637 41.0531 28.2833C43.3641 30.6663 48.1908 31.4885 51.2267 28.7835C51.2575 28.7562 51.2756 28.7562 51.2937 28.738L65.772 15.4405C66.9501 14.3725 68.8079 14.4407 69.8719 15.6224C70.9594 16.8041 70.8687 18.6457 69.6906 19.7372L64.9564 24.0793L91.35 45.5646C91.8711 46.0187 92.3469 46.4735 92.7773 46.973V11.6204C85.3497 4.16936 75.2903 0 64.7923 0L63.22 0.141889ZM60.6462 28.0468L55.2087 33.0475C49.8166 37.979 41.5697 37.5024 36.7575 32.2523C31.9 26.9189 32.2806 18.6421 37.5731 13.7669L52.3994 0.141889H51.2031C40.7269 0.141889 30.6494 4.34036 23.2362 11.7659L23.2 52.4954L26.5078 52.5021L42.9109 67.3859C47.8953 71.4552 55.1906 70.6821 59.2234 65.704L62.5077 68.4763C65.3859 70.6774 69.6453 70.3863 72.0016 67.4993L77.6892 60.4776L78.6632 61.2958C81.1554 63.2968 84.804 62.9333 86.8195 60.4321L88.5482 58.2892C90.5637 55.7879 90.186 52.1443 87.6974 50.116L60.6462 28.0468ZM98.6 11.8568V52.5318C98.6 55.737 101.183 58.362 104.237 58.362L116 58.3529V11.8023L98.6 11.8568ZM107.3 52.5318C105.714 52.5318 104.4 51.2137 104.4 49.623C104.4 48.0086 105.714 46.7143 107.3 46.7143C108.886 46.7143 110.2 48.0204 110.2 49.6394C110.2 51.222 108.895 52.5318 107.3 52.5318Z" fill="#F9B233"/>
</svg>
