<svg width="70" height="70" viewBox="0 0 70 70" fill="none" xmlns="http://www.w3.org/2000/svg">
<path d="M11.1526 64.7795L20.4068 60.7455L24.4407 69.9998L33.9322 45.0846C28.9491 44.8474 24.2034 43.1863 20.6441 40.3389L11.1526 64.7795Z" fill="#F9B233"/>
<path d="M49.3559 40.3389C45.5593 43.1863 41.0507 44.8474 36.0677 45.0846L45.5593 69.9998L49.5932 60.7455L58.8474 64.7795L49.3559 40.3389Z" fill="#F9B233"/>
<path d="M56.2373 21.3559C56.2373 9.49152 46.7458 0 34.8814 0C23.017 0 13.5255 9.49152 13.5255 21.3559C13.5255 33.2203 23.017 42.7118 34.8814 42.7118C46.7458 42.7118 56.2373 33.2203 56.2373 21.3559ZM43.1864 33.2203L34.8813 27.7628L26.5763 33.2203L30.1357 23.7288L23.017 18.983H31.3222L34.8816 9.49152L38.4409 18.983H46.7461L39.6274 23.7288L43.1864 33.2203Z" fill="#F9B233"/>
</svg>
