<svg width="70" height="70" viewBox="0 0 70 70" fill="none" xmlns="http://www.w3.org/2000/svg">
<g clip-path="url(#clip0_32_92)">
<path d="M69.8952 66.9845C63.2649 46.2343 51.9781 28.1262 43.6773 16.5886L43.6678 16.5956C43.6565 16.5832 43.6566 16.5633 43.6448 16.5514C41.1784 14.0815 28.8676 26.2309 27.4715 27.6253C26.0754 29.0196 13.918 41.3192 16.3949 43.7963C16.4237 43.8251 16.4669 43.842 16.4982 43.8689L16.4916 43.8782C33.0959 55.7209 50.5612 64.7171 66.996 69.8945C67.2188 69.9646 67.4509 70.0002 67.6845 70C68.0481 69.9984 68.4063 69.9115 68.7303 69.7464C69.0543 69.5813 69.335 69.3426 69.55 69.0494C69.765 68.7561 69.9082 68.4166 69.9682 68.058C70.0281 67.6994 70.0031 67.3317 69.8952 66.9845ZM28.5479 28.7013C35.6132 21.6374 41.0777 17.8543 42.5014 17.6945C42.3423 19.1185 38.557 24.583 31.494 31.6461C24.431 38.7093 18.9633 42.4941 17.5391 42.6531C17.6989 41.2291 21.4827 35.7654 28.5479 28.7013ZM27.8696 49.6262C27.4281 49.3485 26.9852 49.0767 26.544 48.7949C28.0499 44.2578 29.456 38.3169 30.1895 35.0352C30.8442 34.4161 31.5022 33.7785 32.1637 33.1222C31.8589 34.575 29.9465 43.491 27.8696 49.6262ZM36.2057 54.6098C41.6476 43.4255 44.9087 24.2572 45.3396 21.6182C45.7483 22.2154 46.1605 22.8221 46.5775 23.4449C45.6173 28.9818 42.511 45.1951 37.5327 55.3623C37.0899 55.1176 36.6483 54.8593 36.2057 54.6098ZM47.9048 60.6724C47.4489 60.4564 46.9922 60.2284 46.5359 60.0074C51.599 49.6504 53.3182 36.5895 53.556 34.6067C53.9701 35.3181 54.3836 36.039 54.7965 36.7694C53.6381 45.0222 51.3178 53.0695 47.9048 60.6724ZM58.0983 65.0868C57.6217 64.8994 57.1475 64.7227 56.6697 64.5294C58.9551 59.7287 60.5149 54.6153 61.298 49.3566C61.6776 50.1679 62.0489 50.991 62.419 51.8165C61.5928 56.4168 60.1389 60.8817 58.0983 65.0868ZM20.607 29.1825C20.6731 29.2982 20.7075 29.4292 20.707 29.5625C20.7065 29.6957 20.6709 29.8265 20.6039 29.9416C20.5369 30.0568 20.4407 30.1523 20.3252 30.2187C20.2096 30.285 20.0786 30.3198 19.9453 30.3195H19.9149L14.1432 30.0967C14.0117 30.0917 13.8838 30.0526 13.7719 29.9832C13.6601 29.9138 13.5683 29.8165 13.5054 29.7009L10.8247 24.7865C10.7608 24.6694 10.7289 24.5376 10.732 24.4043C10.7351 24.271 10.7732 24.1409 10.8424 24.0269C10.9117 23.9129 11.0097 23.8191 11.1266 23.755C11.2435 23.6908 11.3752 23.6584 11.5086 23.6612L17.1049 23.7787C17.2365 23.7816 17.3652 23.8185 17.4783 23.886C17.5914 23.9535 17.685 24.0491 17.7501 24.1636L20.607 29.1825ZM30.1655 20.0694C30.1708 20.205 30.1397 20.3396 30.0755 20.4592C30.0113 20.5788 29.9163 20.679 29.8002 20.7496C29.6842 20.8201 29.5515 20.8583 29.4157 20.8602C29.28 20.8622 29.1462 20.8278 29.0282 20.7606L24.0088 17.9079C23.8943 17.8428 23.7986 17.7492 23.7311 17.6361C23.6636 17.523 23.6266 17.3944 23.6237 17.2628L23.5047 11.6667C23.5017 11.5333 23.5339 11.4014 23.598 11.2844C23.6621 11.1673 23.7559 11.0691 23.8699 10.9998C23.984 10.9304 24.1142 10.8922 24.2477 10.889C24.3811 10.8858 24.5131 10.9178 24.6302 10.9817L29.5455 13.662C29.6612 13.7251 29.7586 13.8171 29.8281 13.9289C29.8977 14.0408 29.9371 14.1688 29.9426 14.3004L30.1655 20.0694ZM0.768814 47.0474C0.649651 47.0472 0.532206 47.019 0.425906 46.9651C0.319605 46.9113 0.22741 46.8333 0.15672 46.7374C0.0860301 46.6415 0.0388144 46.5303 0.018863 46.4129C-0.00108847 46.2954 0.0067804 46.1749 0.041837 46.061C3.13731 36.0538 14.3358 35.063 14.4488 35.0542C14.6501 35.0382 14.8494 35.1028 15.0031 35.2339C15.1567 35.3649 15.252 35.5515 15.2679 35.7528C15.2839 35.954 15.2193 36.1534 15.0882 36.307C14.9572 36.4606 14.7705 36.5558 14.5692 36.5718C14.4666 36.58 4.28358 37.5032 1.49594 46.5118C1.44781 46.6669 1.35126 46.8027 1.22042 46.8991C1.08958 46.9954 0.931329 47.0474 0.768814 47.0474ZM0.761506 32.5362C0.61398 32.5362 0.469617 32.4934 0.345975 32.4129C0.222333 32.3325 0.124738 32.2178 0.0650621 32.0829C0.00538574 31.9481 -0.0138019 31.7987 0.0098334 31.6531C0.0334687 31.5075 0.0989081 31.3719 0.198193 31.2629C1.26689 30.1833 2.58854 29.3879 4.04296 28.949C5.49739 28.5102 7.03847 28.4418 8.52607 28.75C8.722 28.7957 8.89189 28.917 8.99861 29.0875C9.10533 29.258 9.14019 29.4638 9.09559 29.66C9.05099 29.8561 8.93055 30.0266 8.76058 30.1342C8.59062 30.2419 8.38495 30.2778 8.18854 30.2343C6.9637 29.9956 5.6992 30.0577 4.50367 30.4154C3.30814 30.7731 2.21734 31.4156 1.32497 32.2877C1.25354 32.3661 1.16652 32.4287 1.06948 32.4715C0.972453 32.5142 0.867552 32.5363 0.761506 32.5362ZM35.8197 15.2664C35.7989 15.2664 35.7782 15.2656 35.7573 15.2641C35.6578 15.2562 35.5609 15.2288 35.472 15.1835C35.3831 15.1381 35.304 15.0757 35.2393 14.9998C35.1745 14.9238 35.1254 14.8359 35.0946 14.741C35.0639 14.6461 35.0521 14.546 35.06 14.4465C35.0689 14.3336 36.0606 3.13663 46.0696 0.0421554C46.166 0.00935876 46.2679 -0.00377949 46.3695 0.00351893C46.471 0.0108173 46.57 0.038404 46.6607 0.084646C46.7514 0.130888 46.8319 0.194847 46.8974 0.272737C46.963 0.350628 47.0122 0.440868 47.0422 0.538119C47.0723 0.635369 47.0825 0.737654 47.0723 0.838923C47.0621 0.940191 47.0317 1.03839 46.9828 1.1277C46.934 1.21701 46.8678 1.29562 46.788 1.35888C46.7083 1.42214 46.6167 1.46877 46.5186 1.496C37.5088 4.28162 36.5854 14.4636 36.5769 14.5662C36.5619 14.7567 36.4756 14.9346 36.3353 15.0644C36.195 15.1942 36.0109 15.2663 35.8197 15.2664ZM29.495 9.11581C29.3229 9.11563 29.156 9.0571 29.0215 8.94979C28.887 8.84249 28.7929 8.69275 28.7546 8.52505C28.446 7.03781 28.5141 5.49702 28.9528 4.04282C29.3916 2.58862 30.187 1.26716 31.2667 0.198636C31.4159 0.0626258 31.6131 -0.00853169 31.8148 0.000817354C32.0166 0.0101664 32.2063 0.0992564 32.3424 0.248488C32.4784 0.39772 32.5496 0.59487 32.5402 0.796567C32.5309 0.998264 32.4418 1.18799 32.2925 1.324C31.42 2.21666 30.7771 3.30769 30.4191 4.50343C30.0611 5.69918 29.9987 6.96392 30.2372 8.1891C30.2813 8.38571 30.2457 8.59179 30.1381 8.76218C30.0305 8.93256 29.8597 9.05333 29.6632 9.098C29.608 9.11007 29.5515 9.11604 29.495 9.11581Z" fill="#F9B233"/>
</g>
<defs>
<clipPath id="clip0_32_92">
<rect width="70" height="70" fill="white"/>
</clipPath>
</defs>
</svg>
