<svg width="70" height="70" viewBox="0 0 70 70" fill="none" xmlns="http://www.w3.org/2000/svg">
<path fill-rule="evenodd" clip-rule="evenodd" d="M11.6667 1.94444C11.6667 0.870567 12.5372 0 13.6111 0H56.3889C57.4628 0 58.3333 0.870567 58.3333 1.94444V3.88889H68.0556C69.1295 3.88889 70 4.75946 70 5.83333V17.5C70 22.8694 65.6472 27.2222 60.2778 27.2222H57.0057C54.2202 35.1029 47.3214 41.0404 38.8889 42.4552V54.4444H50.5556C51.6295 54.4444 52.5 55.315 52.5 56.3889V68.0556C52.5 69.1295 51.6295 70 50.5556 70H19.4444C18.3705 70 17.5 69.1295 17.5 68.0556V56.3889C17.5 55.315 18.3705 54.4444 19.4444 54.4444H31.1111V42.4552C22.6786 41.0404 15.7798 35.1029 12.9943 27.2222H9.72222C4.35279 27.2222 0 22.8694 0 17.5V5.83333C0 4.75946 0.870567 3.88889 1.94444 3.88889H11.6667V1.94444ZM58.3333 19.4444V7.77778H66.1111V17.5C66.1111 20.7218 63.4995 23.3333 60.2778 23.3333H58.3333V19.4444ZM11.6667 7.77778H3.88889V17.5C3.88889 20.7218 6.50057 23.3333 9.72222 23.3333H11.6667V19.4444V7.77778Z" fill="#F9B233"/>
</svg>
