<svg width="83" height="70" viewBox="0 0 83 70" fill="none" xmlns="http://www.w3.org/2000/svg">
<path d="M38.1489 34.6033C36.9661 32.0548 36.3125 29.1459 36.3125 25.9259C36.3125 22.7059 36.9661 19.473 38.1489 16.4396C39.329 13.4037 41.0383 10.5648 43.1522 8.13037C45.2635 5.69852 47.7795 3.66333 50.5703 2.24259C53.3638 0.814074 56.4348 0 59.6562 0C62.8777 0 65.9487 0.653333 68.7422 1.83296C71.5356 3.01519 74.049 4.7237 76.1603 6.83407C78.269 8.94444 79.9835 11.4593 81.1636 14.2515C82.349 17.0411 83 20.1133 83 23.3333C83 26.5533 82.3464 29.6256 81.1636 32.4152C79.9835 35.2074 78.2742 37.7222 76.1603 39.8326C74.0516 41.943 44.2935 68.8178 41.5 70C38.7065 68.8178 8.94844 41.943 6.83712 39.8326C4.72581 37.7222 3.01653 35.2074 1.83378 32.4152C0.653625 29.6256 0 26.5533 0 23.3333C0 20.1133 0.653625 17.0411 1.83378 14.2515C3.01653 11.4593 4.72322 8.94444 6.83712 6.83407C8.94844 4.7237 11.4644 3.01519 14.2578 1.83296C17.0487 0.653333 20.1197 0 23.3438 0C26.5678 0 29.6388 0.814074 32.4297 2.23741C35.2231 3.66333 37.7365 5.69593 39.8504 8.12778C41.9617 10.5622 43.671 13.4011 44.8537 16.437C46.0339 19.473 46.6875 22.7059 46.6875 25.9259C46.6875 29.1459 46.0339 32.0548 44.8537 34.6033C43.671 37.1519 41.9669 39.3426 39.8504 41.1315" fill="#F9B233"/>
</svg>
